<?xml version="1.0" encoding="utf-8"?>
<!-- Generator: Adobe Illustrator 16.0.0, SVG Export Plug-In . SVG Version: 6.00 Build 0)  -->
<!DOCTYPE svg PUBLIC "-//W3C//DTD SVG 1.1//EN" "http://www.w3.org/Graphics/SVG/1.1/DTD/svg11.dtd">
<svg version="1.1" id="Capa_1" xmlns="http://www.w3.org/2000/svg" xmlns:xlink="http://www.w3.org/1999/xlink" x="0px" y="0px"
	 width="345px" height="345px" viewBox="-0.5 0 345 345" enable-background="new -0.5 0 345 345" xml:space="preserve">
<path fill="#EE2D2B" d="M172,42.77c-71.649,0-129.732,58.082-129.732,129.73c0,71.647,58.083,129.731,129.732,129.731
	S301.731,244.147,301.731,172.5C301.731,100.852,243.649,42.77,172,42.77z M111.785,262.562
	c-10.504-10.508-21.105-21.11-31.669-31.678c4.53-4.533,9.078-9.084,13.532-13.543c10.6,10.528,21.226,21.084,31.87,31.656
	C120.917,253.543,116.359,258.045,111.785,262.562z M142.276,260.845c-20.102-20.104-40.263-40.267-60.401-60.406
	c4.48-4.471,9.019-8.995,13.521-13.485c20.1,20.1,40.267,40.264,60.402,60.397C151.303,251.838,146.77,256.363,142.276,260.845z
	 M237.446,181.144c-10.706-10.706-21.426-21.426-32.15-32.15c-0.083,0.072-0.159,0.15-0.249,0.213
	c-0.188,0.133-0.396,0.165-0.597,0.134l-21.968,21.967l9.517,14.826l-4.23,4.229l-14.621-10.086l-26.215,26.215
	c10.886,10.886,21.757,21.757,32.652,32.653c-4.471,4.464-8.994,8.978-13.488,13.462c-25.3-25.31-50.627-50.646-75.94-75.968
	c4.457-4.456,8.991-8.985,13.467-13.458c12.136,12.137,24.298,24.299,36.446,36.448l20.267-20.267l-9.059-24.066l1.406-1.406
	l23.941,19.434l-3.66-6.771l24.944-24.944l0.14,0.139c-12.156-12.156-24.32-24.319-36.489-36.488
	c4.502-4.493,9.04-9.019,13.541-13.51c25.273,25.265,50.6,50.581,75.895,75.865C246.494,172.109,241.952,176.644,237.446,181.144z
	 M245.76,157.32c-20.046-20.048-40.194-40.198-60.461-60.467c4.508-4.412,9.086-8.894,13.678-13.387
	c20.048,20.082,40.187,40.255,60.289,60.392C254.781,148.326,250.245,152.85,245.76,157.32z M247.437,127.062
	c-10.549-10.62-21.104-21.247-31.628-31.841c4.397-4.389,8.951-8.931,13.458-13.428c10.534,10.533,21.146,21.141,31.675,31.669
	C256.491,117.945,251.975,122.491,247.437,127.062z"/>
</svg>
